<svg xmlns="http://www.w3.org/2000/svg" viewBox="0 0 500 500">
  <path d="M250.05,69.51h0A180.44,180.44,0,0,1,430.49,249.95V394.17a36.21,36.21,0,0,1-36.21,36.21H250.05A180.44,180.44,0,0,1,69.62,249.95v0A180.44,180.44,0,0,1,250.05,69.51Z" style="fill: #f89a5b"/>
  <path d="M184.84,370.89V127.83h57.59q39.87,0,59.2,13.82t29,41.86q9.69,28,9.7,66.38,0,36.36-10.24,63.86t-29,42.32q-18.8,14.82-58.67,14.82Zm31.62-26.74h21.08q32.23,0,45.91-11.46T303,300.92q5.88-20.32,5.89-55.92,0-35-6.88-53.77T282.3,162.35q-12.82-10.08-42.16-10.08H216.46Z" style="fill: #231f20"/>
</svg>
